<mxfile host="app.diagrams.net" modified="2023-07-24T05:13:38.414Z" agent="Mozilla/5.0 (Macintosh; Intel Mac OS X 10_15_7) AppleWebKit/537.36 (KHTML, like Gecko) Chrome/112.0.0.0 Safari/537.36" etag="AIeiYT-e2sdGlU-cbou5" version="21.6.5" type="device">
  <diagram name="Page-1" id="h3hb4T92wC4LCY1ifoIB">
    <mxGraphModel dx="954" dy="620" grid="1" gridSize="10" guides="1" tooltips="1" connect="1" arrows="1" fold="1" page="1" pageScale="1" pageWidth="827" pageHeight="1169" math="0" shadow="0">
      <root>
        <mxCell id="0" />
        <mxCell id="1" parent="0" />
        <mxCell id="snBD3ZfTyoc-V8AvG5Zh-73" value="" style="shape=cylinder3;whiteSpace=wrap;html=1;boundedLbl=1;backgroundOutline=1;size=15;rotation=90;fillStyle=solid;fillColor=#fff2cc;strokeColor=#d6b656;" vertex="1" parent="1">
          <mxGeometry x="285.63" y="228.13" width="110" height="173.75" as="geometry" />
        </mxCell>
        <mxCell id="snBD3ZfTyoc-V8AvG5Zh-74" value="&lt;font style=&quot;font-size: 16px;&quot; color=&quot;#3333ff&quot;&gt;&lt;b&gt;Google&lt;br style=&quot;border-color: var(--border-color);&quot;&gt;FLAN T5 Large&lt;br style=&quot;border-color: var(--border-color);&quot;&gt;(QA Model)&lt;/b&gt;&lt;/font&gt;" style="html=1;whiteSpace=wrap;shape=isoCube2;backgroundOutline=1;isoAngle=15;fillColor=#f5f5f5;strokeColor=#666666;fontColor=#333333;" vertex="1" parent="1">
          <mxGeometry x="640" y="240" width="159" height="170" as="geometry" />
        </mxCell>
        <mxCell id="snBD3ZfTyoc-V8AvG5Zh-75" value="" style="shape=flexArrow;endArrow=classic;html=1;rounded=1;fillColor=#d5e8d4;strokeColor=#82b366;fillStyle=solid;sketch=1;curveFitting=1;jiggle=2;shadow=0;" edge="1" parent="1">
          <mxGeometry width="50" height="50" relative="1" as="geometry">
            <mxPoint x="490" y="210" as="sourcePoint" />
            <mxPoint x="640" y="280" as="targetPoint" />
            <Array as="points">
              <mxPoint x="490" y="280" />
            </Array>
          </mxGeometry>
        </mxCell>
        <mxCell id="snBD3ZfTyoc-V8AvG5Zh-76" value="&lt;b&gt;Question&lt;/b&gt;" style="edgeLabel;html=1;align=center;verticalAlign=middle;resizable=0;points=[];" vertex="1" connectable="0" parent="snBD3ZfTyoc-V8AvG5Zh-75">
          <mxGeometry x="0.3692" y="-2" relative="1" as="geometry">
            <mxPoint x="22" y="-2" as="offset" />
          </mxGeometry>
        </mxCell>
        <mxCell id="snBD3ZfTyoc-V8AvG5Zh-77" value="" style="shape=flexArrow;endArrow=classic;html=1;rounded=0;fillColor=#f8cecc;strokeColor=#b85450;sketch=1;curveFitting=1;jiggle=2;" edge="1" parent="1">
          <mxGeometry width="50" height="50" relative="1" as="geometry">
            <mxPoint x="420" y="360" as="sourcePoint" />
            <mxPoint x="640" y="360" as="targetPoint" />
            <Array as="points">
              <mxPoint x="490" y="360" />
            </Array>
          </mxGeometry>
        </mxCell>
        <mxCell id="snBD3ZfTyoc-V8AvG5Zh-78" value="&lt;b&gt;Context&lt;/b&gt;" style="edgeLabel;html=1;align=center;verticalAlign=middle;resizable=0;points=[];" vertex="1" connectable="0" parent="snBD3ZfTyoc-V8AvG5Zh-77">
          <mxGeometry x="0.2091" y="3" relative="1" as="geometry">
            <mxPoint x="27" y="1" as="offset" />
          </mxGeometry>
        </mxCell>
        <mxCell id="snBD3ZfTyoc-V8AvG5Zh-79" value="" style="shape=flexArrow;endArrow=classic;html=1;rounded=1;fillColor=#d5e8d4;strokeColor=#82b366;fillStyle=solid;sketch=1;curveFitting=1;jiggle=2;shadow=0;" edge="1" parent="1">
          <mxGeometry width="50" height="50" relative="1" as="geometry">
            <mxPoint x="490" y="210" as="sourcePoint" />
            <mxPoint x="420" y="280" as="targetPoint" />
            <Array as="points">
              <mxPoint x="490" y="280" />
            </Array>
          </mxGeometry>
        </mxCell>
        <mxCell id="snBD3ZfTyoc-V8AvG5Zh-80" value="Top K contexts" style="verticalLabelPosition=bottom;verticalAlign=top;html=1;shape=mxgraph.basic.layered_rect;dx=10;outlineConnect=0;whiteSpace=wrap;fillColor=default;strokeColor=#d79b00;fillStyle=auto;" vertex="1" parent="1">
          <mxGeometry x="460" y="370" width="100" height="60" as="geometry" />
        </mxCell>
        <mxCell id="snBD3ZfTyoc-V8AvG5Zh-81" value="Stores&amp;nbsp;&lt;br&gt;&lt;b&gt;&lt;font style=&quot;font-size: 14px;&quot;&gt;Hybrid Encodings&lt;/font&gt;&lt;/b&gt;&amp;nbsp;&lt;br&gt;For all fixed length&amp;nbsp;&lt;br&gt;contexts" style="shape=datastore;whiteSpace=wrap;html=1;" vertex="1" parent="1">
          <mxGeometry x="80" y="230" width="120" height="140" as="geometry" />
        </mxCell>
        <mxCell id="snBD3ZfTyoc-V8AvG5Zh-82" value="Context Search Pipeline&lt;br&gt;Uses Cosine Similarity&amp;nbsp;&lt;br&gt;and Hybrid Search&amp;nbsp;" style="text;html=1;align=center;verticalAlign=middle;resizable=0;points=[];autosize=1;strokeColor=none;fillColor=none;fontStyle=1" vertex="1" parent="1">
          <mxGeometry x="245" y="285" width="160" height="60" as="geometry" />
        </mxCell>
        <mxCell id="snBD3ZfTyoc-V8AvG5Zh-83" value="" style="edgeStyle=none;orthogonalLoop=1;jettySize=auto;html=1;shape=flexArrow;rounded=1;startSize=8;endSize=8;exitX=1;exitY=0.446;exitDx=0;exitDy=0;exitPerimeter=0;fillColor=#f8cecc;strokeColor=#b85450;" edge="1" parent="1">
          <mxGeometry width="100" relative="1" as="geometry">
            <mxPoint x="203" y="292.44000000000005" as="sourcePoint" />
            <mxPoint x="253" y="290" as="targetPoint" />
            <Array as="points" />
          </mxGeometry>
        </mxCell>
        <mxCell id="snBD3ZfTyoc-V8AvG5Zh-84" value="" style="edgeStyle=none;orthogonalLoop=1;jettySize=auto;html=1;shape=flexArrow;rounded=1;startSize=8;endSize=8;exitX=1;exitY=0.446;exitDx=0;exitDy=0;exitPerimeter=0;fillColor=#f8cecc;strokeColor=#b85450;" edge="1" parent="1">
          <mxGeometry width="100" relative="1" as="geometry">
            <mxPoint x="246" y="330.44000000000005" as="sourcePoint" />
            <mxPoint x="203" y="330" as="targetPoint" />
            <Array as="points" />
          </mxGeometry>
        </mxCell>
        <mxCell id="snBD3ZfTyoc-V8AvG5Zh-85" value="" style="shape=flexArrow;endArrow=classic;html=1;rounded=0;fillColor=#dae8fc;strokeColor=#6c8ebf;" edge="1" parent="1">
          <mxGeometry width="50" height="50" relative="1" as="geometry">
            <mxPoint x="140" y="180" as="sourcePoint" />
            <mxPoint x="139.5" y="245" as="targetPoint" />
          </mxGeometry>
        </mxCell>
        <mxCell id="snBD3ZfTyoc-V8AvG5Zh-86" value="Processing" style="edgeLabel;html=1;align=center;verticalAlign=middle;resizable=0;points=[];" vertex="1" connectable="0" parent="snBD3ZfTyoc-V8AvG5Zh-85">
          <mxGeometry x="-0.169" y="-1" relative="1" as="geometry">
            <mxPoint as="offset" />
          </mxGeometry>
        </mxCell>
        <mxCell id="snBD3ZfTyoc-V8AvG5Zh-87" value="" style="verticalLabelPosition=bottom;verticalAlign=top;html=1;shape=mxgraph.basic.layered_rect;dx=10;outlineConnect=0;whiteSpace=wrap;fillColor=#dae8fc;strokeColor=#6c8ebf;fillStyle=auto;" vertex="1" parent="1">
          <mxGeometry x="90" y="120" width="100" height="60" as="geometry" />
        </mxCell>
        <mxCell id="snBD3ZfTyoc-V8AvG5Zh-88" value="&lt;span style=&quot;color: rgb(0, 0, 0); font-family: Helvetica; font-size: 12px; font-style: normal; font-variant-ligatures: normal; font-variant-caps: normal; font-weight: 400; letter-spacing: normal; orphans: 2; text-align: center; text-indent: 0px; text-transform: none; widows: 2; word-spacing: 0px; -webkit-text-stroke-width: 0px; background-color: rgb(251, 251, 251); text-decoration-thickness: initial; text-decoration-style: initial; text-decoration-color: initial; float: none; display: inline !important;&quot;&gt;Confluence&lt;br&gt;&amp;nbsp;Pages&lt;/span&gt;" style="text;whiteSpace=wrap;html=1;" vertex="1" parent="1">
          <mxGeometry x="100" y="130" width="70" height="40" as="geometry" />
        </mxCell>
        <mxCell id="snBD3ZfTyoc-V8AvG5Zh-89" value="Input Query" style="text;strokeColor=none;fillColor=none;html=1;fontSize=15;fontStyle=1;verticalAlign=middle;align=center;" vertex="1" parent="1">
          <mxGeometry x="450" y="180" width="90" height="40" as="geometry" />
        </mxCell>
        <mxCell id="snBD3ZfTyoc-V8AvG5Zh-90" value="Users" style="shape=image;verticalLabelPosition=bottom;labelBackgroundColor=default;verticalAlign=top;aspect=fixed;imageAspect=0;image=https://simpleicon.com/wp-content/uploads/users.png;fontStyle=0" vertex="1" parent="1">
          <mxGeometry x="464" y="120" width="50" height="50" as="geometry" />
        </mxCell>
        <mxCell id="snBD3ZfTyoc-V8AvG5Zh-91" value="" style="shape=flexArrow;endArrow=classic;html=1;rounded=0;exitX=1;exitY=0.5;exitDx=0;exitDy=0;exitPerimeter=0;fillColor=#e1d5e7;strokeColor=#9673a6;entryX=0.15;entryY=0.875;entryDx=0;entryDy=0;entryPerimeter=0;fillStyle=dots;" edge="1" parent="1" target="snBD3ZfTyoc-V8AvG5Zh-93">
          <mxGeometry width="50" height="50" relative="1" as="geometry">
            <mxPoint x="799" y="332" as="sourcePoint" />
            <mxPoint x="898" y="331.57" as="targetPoint" />
          </mxGeometry>
        </mxCell>
        <mxCell id="snBD3ZfTyoc-V8AvG5Zh-92" value="Answer" style="edgeLabel;html=1;align=center;verticalAlign=middle;resizable=0;points=[];" vertex="1" connectable="0" parent="snBD3ZfTyoc-V8AvG5Zh-91">
          <mxGeometry x="-0.4199" relative="1" as="geometry">
            <mxPoint x="20" as="offset" />
          </mxGeometry>
        </mxCell>
        <mxCell id="snBD3ZfTyoc-V8AvG5Zh-93" value="Answer" style="whiteSpace=wrap;html=1;shape=mxgraph.basic.roundRectCallout;dx=30;dy=15;size=5;boundedLbl=1;" vertex="1" parent="1">
          <mxGeometry x="888" y="295" width="80" height="40" as="geometry" />
        </mxCell>
        <mxCell id="snBD3ZfTyoc-V8AvG5Zh-94" value="" style="shape=image;html=1;verticalAlign=top;verticalLabelPosition=bottom;labelBackgroundColor=#ffffff;imageAspect=0;aspect=fixed;image=https://cdn1.iconfinder.com/data/icons/unicons-line-vol-1/24/brain-128.png" vertex="1" parent="1">
          <mxGeometry x="695.5" y="247" width="48" height="48" as="geometry" />
        </mxCell>
      </root>
    </mxGraphModel>
  </diagram>
</mxfile>
